<?xml version="1.0" standalone="no"?>
<!DOCTYPE svg PUBLIC "-//W3C//DTD SVG 20010904//EN"
 "http://www.w3.org/TR/2001/REC-SVG-20010904/DTD/svg10.dtd">
<svg version="1.0" xmlns="http://www.w3.org/2000/svg"
 width="474.000000pt" height="474.000000pt" viewBox="0 0 474.000000 474.000000"
 preserveAspectRatio="xMidYMid meet">

<g transform="translate(0.000000,474.000000) scale(0.100000,-0.100000)"
fill="#000000" stroke="none">
<path d="M600 4730 c-8 -4 -45 -22 -81 -39 -83 -39 -159 -117 -202 -208 -30
-64 -32 -75 -32 -178 0 -103 2 -114 31 -175 39 -80 92 -143 158 -185 80 -50
111 -58 266 -64 l145 -6 3 -1507 2 -1508 -109 0 c-61 0 -134 -5 -163 -11 -125
-26 -243 -123 -300 -246 -63 -134 -46 -302 42 -426 43 -60 130 -129 186 -147
19 -7 34 -16 34 -21 0 -5 530 -9 1345 -9 890 0 1345 3 1345 10 0 6 13 10 28
10 43 0 226 54 320 94 431 185 749 588 828 1051 20 122 15 411 -10 522 -52
228 -163 449 -310 621 -25 30 -46 56 -46 58 0 3 22 31 49 64 166 199 274 428
315 665 21 118 21 361 0 480 -41 241 -154 481 -312 665 -64 74 -74 84 -163
162 -171 149 -441 277 -650 308 -41 6 -82 16 -91 21 -22 11 -2607 11 -2628 -1z
m2594 -870 c150 -38 270 -127 340 -253 121 -215 93 -460 -72 -638 -65 -70
-126 -111 -223 -147 l-74 -27 -699 3 c-384 1 -703 5 -707 8 -10 6 -12 1033 -3
1058 6 14 75 16 683 16 642 0 682 -1 755 -20z m-5 -1936 c95 -24 176 -68 244
-133 71 -66 115 -132 148 -221 31 -85 34 -245 5 -330 -46 -139 -129 -242 -246
-308 -125 -71 -62 -66 -862 -69 l-728 -4 0 534 c0 293 3 537 7 540 3 4 312 7
687 7 595 0 688 -2 745 -16z"/>
</g>
</svg>
